<svg xmlns="http://www.w3.org/2000/svg" viewBox="0 0 16 16">
  <path fill="white" d="M 2.5 2 C 2.223 2 2 2.223 2 2.5 L 2 3.5 C 2 3.777 2.223 4 2.5 4 L 13.5 4 C 13.777 4 14 3.777 14 3.5 L 14 2.5 C 14 2.223 13.777 2 13.5 2 L 2.5 2 z M 5.5 5 L 5.5 6.5 L 2.5 6.5 C 2.223 6.5 2 6.723 2 7 L 2 10 C 2 10.277 2.223 10.5 2.5 10.5 L 5.5 10.5 L 5.5 14 L 10.5 14 L 10.5 10.5 L 13.5 10.5 C 13.777 10.5 14 10.277 14 10 L 14 7 C 14 6.723 13.777 6.5 13.5 6.5 L 10.5 6.5 L 10.5 5 L 5.5 5 z M 3 7.5 L 5.5 7.5 L 5.5 9 L 3 9 L 3 7.5 z M 10.5 7.5 L 13 7.5 L 13 9 L 10.5 9 L 10.5 7.5 z "/>
</svg>
