<svg xmlns="http://www.w3.org/2000/svg" viewBox="0 0 16 16">
  <path fill="white" d="M 5 1 L 5 3 L 3 3 L 3 6 L 5 6 L 5 7 L 3 7 L 3 10 L 5 10 L 5 12 L 6 12 L 6 10 L 8 10 L 8 7 L 6 7 L 6 6 L 8 6 L 8 3 L 6 3 L 6 1 L 5 1 z M 10 1 L 10 3 L 8 3 L 8 6 L 10 6 L 10 7 L 8 7 L 8 10 L 10 10 L 10 12 L 11 12 L 11 10 L 13 10 L 13 7 L 11 7 L 11 6 L 13 6 L 13 3 L 11 3 L 11 1 L 10 1 z M 4 4 L 7 4 L 7 5 L 4 5 L 4 4 z M 9 4 L 12 4 L 12 5 L 9 5 L 9 4 z M 4 8 L 7 8 L 7 9 L 4 9 L 4 8 z M 9 8 L 12 8 L 12 9 L 9 9 L 9 8 z M 5 13 L 6 14 L 7 13 L 8 14 L 8 15 L 7 15 L 6 14 L 5 15 L 4 15 L 4 14 L 5 13 z"/>
</svg>
